<svg id="Calque_1" data-name="Calque 1" xmlns="http://www.w3.org/2000/svg" viewBox="0 0 250 250"><defs><style>.cls-1{fill:#fff;}.cls-2{fill:#fcdf4c;}.cls-3{fill:#feefd2;}</style></defs><title>calories</title><path class="cls-1" d="M187.84,174.84a61.43,61.43,0,0,1-12.78,24,41.18,41.18,0,0,1-8.54,8.19l-1.67,0a.41.41,0,0,1-.34-.13,2.29,2.29,0,0,0-1-1.64c-3.2-2.66-4.69-6.53-5.69-10.19a34.56,34.56,0,0,1-.45-17.54c.2-.8.54-1.82-.13-2.31-.41-.3-1.53,0-2.08.34-6,4.09-9.46,9.89-11,16.92-.2.93.5,2.36-.44,2.72s-1.62-1.09-2.41-1.74a4.77,4.77,0,0,1-1.22-1.81c-2.62-5.67-2.28-11.57-1.08-17.41.92-4.43,2-8.8,1.65-13.36-.32-4.33-1.16-8.48-4.46-11.67-.4-.39-.76-1.1-1.37-.88s-.6,1.09-.6,1.74c0,4.25-1.6,7.82-3.92,11.34a53.14,53.14,0,0,1-18.75,17c-9.2,5.17-14.6,12.5-15.87,22.84-.23,1.83-1.09,3.79-.15,5.71l-.19,1.52-.81,1C80.66,197,71.52,182,70.19,162.92a56.58,56.58,0,0,1,1.16-16.39c1.12-.27,1.48-1.24,1.86-2.12a33.34,33.34,0,0,1,5.35-8.73c4.75-5.53,8.87-11.59,14.56-16.36a106.74,106.74,0,0,0,12.56-12.91c2.71-3.2,5.49-6.34,8-9.67a92.31,92.31,0,0,0,8-12.31,49.46,49.46,0,0,0,4.08-9.66c.19-.66-.34-1.66.62-1.92a2.49,2.49,0,0,1,2.25.75c3.61,3.38,6.77,7,8.3,11.91a47.25,47.25,0,0,1,1.86,16.22A65.41,65.41,0,0,1,135,120.34a74.85,74.85,0,0,1-6.91,14.85c-.54.88-1.59,1.9-1,2.88.65,1.15,2.11.35,3.2.51a2.05,2.05,0,0,0,.73-.12c5.71-1.39,11.52-2.21,17-4.59,5.87-2.54,11.54-5.29,16.5-9.34,2.69-2.2,3.66-2.08,6.11.5,5.29,5.54,9,12.07,12.13,19a43.58,43.58,0,0,1,3.49,10.63,84,84,0,0,1,1.07,17.7C187.26,173.16,187,174.14,187.84,174.84Z"/><path class="cls-2" d="M164.84,207.08l1.67,0C166,207.82,165.41,208.22,164.84,207.08Z"/><path class="cls-2" d="M94.54,209.54l.81-1a2.8,2.8,0,0,1-.08,1.14C95.11,210,94.74,209.88,94.54,209.54Z"/><path class="cls-3" d="M151,120.74l-.46.3Z"/><path class="cls-1" d="M151.09,120.76s-6.3,4.7-9.84,6.32c2.06-2.61,5.26-8,5.26-8a32.44,32.44,0,0,0,1.91-4.41c4.52-10.22,5-20.78,2.36-31.48-3.45-14.07-11.09-25.82-20.86-36.29a70.26,70.26,0,0,0-13.13-11.24c-.4-.26-.8-.71-1.32-.49s-.35.85-.3,1.3a71.55,71.55,0,0,1-.78,19c-2.94,18-10.34,34.17-21.27,48.71C87.79,111.21,82,117.93,78.24,126c-3.1,6.58-5.89,13.25-6.89,20.53,1.12-.27,1.48-1.24,1.86-2.12a33.34,33.34,0,0,1,5.35-8.73c4.75-5.53,8.87-11.59,14.56-16.36a106.74,106.74,0,0,0,12.56-12.91c2.71-3.2,5.49-6.34,8-9.67a92.31,92.31,0,0,0,8-12.31,49.46,49.46,0,0,0,4.08-9.66c.19-.66-.34-1.66.62-1.92a2.49,2.49,0,0,1,2.25.75c3.61,3.38,6.77,7,8.3,11.91a47.25,47.25,0,0,1,1.86,16.22A65.41,65.41,0,0,1,135,120.34a74.85,74.85,0,0,1-6.91,14.85c-.54.88-1.59,1.9-1,2.88.65,1.15,2.11.35,3.2.51a2.05,2.05,0,0,0,.73-.12c5.71-1.39,11.52-2.21,17-4.59,5.87-2.54,11.54-5.29,16.5-9.34,2.69-2.2,3.66-2.08,6.11.5,5.29,5.54,9,12.07,12.13,19a43.58,43.58,0,0,1,3.49,10.63,84,84,0,0,1,1.07,17.7c0,.86-.34,1.84.54,2.54a62.37,62.37,0,0,0,2.92-25.07c-1.57-17.89-9.22-32.95-21.18-46-1.16-1.26-1.86-1.37-2.94.22A83.46,83.46,0,0,1,151,120.74"/></svg>