<svg id="Calque_1" data-name="Calque 1" xmlns="http://www.w3.org/2000/svg" viewBox="0 0 250 250"><defs><style>.cls-1{fill:#fff;}</style></defs><title>distance</title><path class="cls-1" d="M171.3,64.12A41.72,41.72,0,0,1,207,127.4Q191.8,153.72,176.57,180c-2.57,4.44-7.95,4.42-10.52,0-10.38-18-20.82-35.89-31.07-53.92-13.17-23.18-.92-53,24.74-60.23A38.57,38.57,0,0,1,171.3,64.12Zm0,61.89a20.22,20.22,0,1,0-20.14-20.43A20.3,20.3,0,0,0,171.25,126Z"/><path class="cls-1" d="M45.4,89.16a26,26,0,0,1,51.43-5.57,25.15,25.15,0,0,1-2.68,18.1q-9.7,17-19.56,33.91c-1.6,2.76-4.78,2.74-6.39,0q-9.82-16.93-19.57-33.91A24.73,24.73,0,0,1,45.4,89.16Zm26,12.13a12.16,12.16,0,1,0-12.25-12A12.17,12.17,0,0,0,71.44,101.29Z"/><path class="cls-1" d="M165.13,187.41H77.32c-5.32,0-10.41-.95-14.94-3.91-10.11-6.6-9.44-19.65,1.24-25.32A28.84,28.84,0,0,1,77.34,155q14.37,0,28.74,0a16.9,16.9,0,0,0,7.63-1.41,12.22,12.22,0,0,0,1.63-.93c3.82-2.67,3.83-6.73,0-9.4a14.48,14.48,0,0,0-8.54-2.34H76.27c1.11-1.67,2.19-3.34,3.33-5a1.33,1.33,0,0,1,1-.46c9.82.05,19.64,0,29.45.27a15.59,15.59,0,0,1,9.07,3.51c6.11,4.7,6.08,12.82-.09,17.45a19.07,19.07,0,0,1-11.7,3.68c-10.06,0-20.13,0-30.19,0a22.73,22.73,0,0,0-10.26,2.21c-.22.11-.44.21-.65.33-3.16,1.87-5.56,4.31-5.57,8.23s2.35,6.43,5.55,8.24a21.87,21.87,0,0,0,11,2.56q40.79,0,81.57,0a3,3,0,0,1,3,1.61A28.22,28.22,0,0,0,165.13,187.41Z"/></svg>