<?xml version="1.0" encoding="utf-8"?>
<!-- Generator: Adobe Illustrator 21.1.0, SVG Export Plug-In . SVG Version: 6.00 Build 0)  -->
<svg version="1.1" id="Calque_1" xmlns="http://www.w3.org/2000/svg" xmlns:xlink="http://www.w3.org/1999/xlink" x="0px" y="0px"
	 viewBox="0 0 603 258" style="enable-background:new 0 0 603 258;" xml:space="preserve">
<style type="text/css">
	.st0{opacity:0.25;fill:#FFFFFF;enable-background:new    ;}
	.st1{fill:#FFFFFF;}
</style>
<title>Plan de travail 1 copie 26</title>
<g>
	<circle class="st0" cx="119.8" cy="130.5" r="87.8"/>
	<circle class="st1" cx="124.1" cy="85.4" r="6.5"/>
	<circle class="st1" cx="109" cy="106.1" r="11.4"/>
	<circle class="st1" cx="97.6" cy="129.7" r="5.6"/>
	<circle class="st1" cx="167.7" cy="148.2" r="7.2"/>
	<circle class="st1" cx="212.7" cy="217.3" r="8"/>
	<circle class="st1" cx="146.2" cy="188.6" r="6.1"/>
	<circle class="st1" cx="111.3" cy="167.9" r="6.4"/>
	<circle class="st1" cx="71" cy="187.1" r="6.6"/>
	<circle class="st1" cx="207.6" cy="58.4" r="6.8"/>
	<circle class="st1" cx="223.9" cy="48.4" r="5.4"/>
	<path class="st1" d="M214.5,218.8L146,189.3l-78-1.6l43-20.5l55.6-19.4l-42.5-61.2l-14.6,19.9l-11.3,24.1L97,130l11.4-24.2
		l15.8-21.5l43.4,62.5L207,57.9l16.5-10.2l0.7,1.2l-16.1,10l-39.6,89.2l0.3,0.4l0,0L214.5,218.8z M73.8,186.4l72.5,1.5l64.6,27.9
		L167.4,149l-55.9,19.5L73.8,186.4z"/>
	<path class="st1" d="M287.7,152.4h-35.4l-8,21.8h-6.9l29.5-77.9h6.3l29.5,77.9h-6.8L287.7,152.4z M254.4,146.8h31.3L270,104.4
		L254.4,146.8z"/>
	<path class="st1" d="M320.8,168.7h38.5v5.6h-45.1v-78h6.6V168.7z"/>
	<path class="st1" d="M410,101.9h-26.7v72.3h-6.6v-72.3H350v-5.6h60V101.9z"/>
	<path class="st1" d="M460.5,152.4H425l-8,21.8h-6.8l29.5-77.9h6.3l29.5,77.9h-6.8L460.5,152.4z M427.2,146.8h31.3l-15.6-42.5
		L427.2,146.8z"/>
	<path class="st1" d="M475.7,82.3c0-1.1,0.4-2.3,1.2-3.1c0.8-0.9,2-1.3,3.2-1.3c2.3-0.1,4.3,1.7,4.4,4c0,0.1,0,0.2,0,0.4
		c0,1.1-0.4,2.2-1.2,3c-0.9,0.8-2,1.3-3.2,1.2c-1.2,0.1-2.4-0.4-3.2-1.2C476.1,84.5,475.6,83.5,475.7,82.3z M494.9,174.3h-6.6v-78
		h6.6V174.3z M499.1,82.4c0-1.1,0.4-2.3,1.2-3.1c0.8-0.9,2-1.3,3.2-1.3c2.3-0.1,4.3,1.7,4.4,4c0,0.1,0,0.2,0,0.4
		c0,1.1-0.4,2.2-1.2,3c-0.9,0.8-2,1.3-3.2,1.2c-1.2,0.1-2.4-0.4-3.2-1.2C499.5,84.6,499.1,83.5,499.1,82.4L499.1,82.4z"/>
	<path class="st1" d="M545.1,141.8h-22.6v32.5h-6.6v-78h25.3c8.3,0,14.8,2,19.5,6s7,9.7,7,16.9c0.1,4.8-1.5,9.4-4.4,13.2
		c-3,3.8-7.1,6.6-11.8,7.9l19.6,33.2v0.7h-7L545.1,141.8z M522.4,136.2h20.2c4.9,0.2,9.7-1.5,13.3-4.7c3.4-3.2,5.2-7.6,5-12.3
		c0-5.5-1.8-9.8-5.3-12.8s-8.4-4.6-14.7-4.6h-18.5V136.2z"/>
</g>
</svg>
