<?xml version="1.0" encoding="utf-8"?>
<!-- Generator: Adobe Illustrator 21.1.0, SVG Export Plug-In . SVG Version: 6.00 Build 0)  -->
<svg version="1.1" id="Calque_1" xmlns="http://www.w3.org/2000/svg" xmlns:xlink="http://www.w3.org/1999/xlink" x="0px" y="0px"
	 viewBox="0 0 431 197.5" style="enable-background:new 0 0 431 197.5;" xml:space="preserve">
<style type="text/css">
	.st0{fill:url(#SVGID_1_);}
</style>
<title>Plan de travail 1 copie 26</title>
<linearGradient id="SVGID_1_" gradientUnits="userSpaceOnUse" x1="109.0947" y1="-23.836" x2="329.8344" y2="196.9037">
	<stop  offset="0" style="stop-color:#00737A"/>
	<stop  offset="0.1313" style="stop-color:#1B7375"/>
	<stop  offset="0.4141" style="stop-color:#60756A"/>
	<stop  offset="0.8229" style="stop-color:#CE7657"/>
	<stop  offset="1" style="stop-color:#FF774F"/>
</linearGradient>
<path class="st0" d="M119.8,80.2c1,2.6,1.3,5.5,0.9,8.7c-0.7,5.3-3.1,9.8-7.2,13.7H83.3c-0.8,0-1.4,0.6-1.4,1.4v0.5
	c0,0.8,0.6,1.4,1.4,1.4h26c-6.5,4.3-15,6.5-25.5,6.5c-3.4,0-6.6-0.3-9.9-1c-3.2-0.7-6-1.5-8.2-2.4c-2.2-0.9-4.2-1.9-6-2.8
	c-1.7-0.9-3-1.7-3.8-2.4l-1.3-1l9.1-17.7c2.1,1.7,4.8,3.2,8,4.4c3.2,1.2,5.8,2,8,2.3l3.1,0.5c4,0.4,6.7,0.5,8.1,0.2
	c1.4-0.3,2.2-1.1,2.3-2.3c0-0.3,0-0.5-0.2-0.8c-0.1-0.2-0.3-0.5-0.7-0.7c-0.4-0.2-0.8-0.4-1.2-0.5c-0.4-0.1-1-0.3-1.8-0.5
	c-0.8-0.2-1.5-0.3-2.2-0.5c-0.7-0.2-1.6-0.4-2.8-0.6c-1.2-0.2-2.3-0.5-3.4-0.8c-5.9-1.3-10.4-3.1-13.6-5.2c-3.2-2.1-5.2-4.4-6-6.9
	c-0.9-2.5-1.1-5.6-0.6-9.4c0.3-2.2,0.9-4.3,1.7-6.3h23.7c0.8,0,1.4-0.6,1.4-1.4v-3.4c0,0.8-0.6,1.4-1.4,1.4H37.7
	c-0.8,0-1.4-0.6-1.4-1.4v-3.9c0-0.8,0.6-1.4,1.4-1.4h33.7c0.1-0.1,0.3-0.2,0.4-0.3c6.4-4.1,14.9-6.2,25.7-6.2c9.2,0,17,2.1,23.3,6.4
	l-8.9,17.6c-4-3.3-9.7-5.1-16.9-5.5c-3-0.1-5.1,0-6.3,0.5c-1.2,0.4-1.8,1.2-2,2.3c-0.1,0.8,0.4,1.4,1.3,1.7c0.9,0.3,2.8,0.7,5.7,1.2
	c0.7,0.1,1.2,0.2,1.6,0.3c2.6,0.4,5,0.9,7,1.4c2.1,0.5,4.4,1.4,7,2.5c2.6,1.1,4.7,2.5,6.4,4.1C117.5,75.6,118.8,77.7,119.8,80.2z
	 M267.1,106h-19.8l-0.6,4.9h46.7l2.3-19.3h-20.9l0.8-6.4h16.1l2-16.1h-16.1l0.8-6.4h20.9l0.4-3.5h-8.6c-0.8,0-1.4-0.6-1.4-1.4v-3.9
	c0-0.8,0.6-1.4,1.4-1.4h9.4l1.1-9.1H255l-6.4,52.6h-4.4c-0.8,0-1.4,0.6-1.4,1.4v3.9c0,0.8,0.6,1.4,1.4,1.4h22.9
	c0.8,0,1.4-0.6,1.4-1.4v3.4C268.5,105.4,267.9,106,267.1,106z M363.4,77.2v3.9c0,0.8,0.6,1.4,1.4,1.4h7.2c-0.3,1.1-0.6,2.3-1,3.4
	h-19.6c-0.8,0-1.4,0.6-1.4,1.4v3.9c0,0.8,0.6,1.4,1.4,1.4h16.4c-1.9,3.2-4.3,6.1-7.2,8.7c-7.1,6.4-16.2,9.6-27.1,9.6h-32.1l0.4-3.2
	H336c0.8,0,1.4-0.6,1.4-1.4v-3.4c0,0.8-0.6,1.4-1.4,1.4h-36.5c-0.8,0-1.4-0.6-1.4-1.4V99c0-0.8,0.6-1.4,1.4-1.4h3.6l2.2-18.4h14.9
	c0.8,0,1.4-0.6,1.4-1.4v-3.4c0,0.8-0.6,1.4-1.4,1.4h-22.9c-0.8,0-1.4-0.6-1.4-1.4v-3.9c0-0.8,0.6-1.4,1.4-1.4h9.3l2.3-19.1h36.4
	c0.8,0,1.4-0.6,1.4-1.4v-3.4c0,0.8-0.6,1.4-1.4,1.4h-40.2c-0.8,0-1.4-0.6-1.4-1.4v-3.9c0-0.8,0.6-1.4,1.4-1.4h40.2
	c0.8,0,1.4,0.6,1.4,1.4v2.1c8.7,0.8,15.4,3.9,20.1,9.3c5.2,6.1,7.4,13.8,6.5,23h-8.4C364.1,75.8,363.4,76.5,363.4,77.2z M345.1,66.8
	c-2-2.8-4.6-4.2-8-4.2h-4l-3.6,29h4c3.4,0,6.4-1.4,9.1-4.2c2.7-2.8,4.3-6.2,4.8-10.3C347.8,73,347.1,69.6,345.1,66.8z M181.3,97.4
	v3.9c0,0.8,0.6,1.4,1.4,1.4h40.2c0.8,0,1.4-0.6,1.4-1.4v3.4c0,0.8-0.6,1.4-1.4,1.4h-30.3l-0.6,4.9h46.7l2.3-19.3h-20.9l0.8-6.4H237
	l2-16.1h-16.1l0.8-6.4h20.9l2.3-19.3h-46.7l-6.4,52.6h-11.2C181.9,95.9,181.3,96.6,181.3,97.4z M167,91.6h-14.5l-1.4,11.1h-10.9
	c-0.8,0-1.4,0.6-1.4,1.4v0.5c0,0.8,0.6,1.4,1.4,1.4h10.5l-0.6,4.9h-25.7l4.9-40.1h15.9c0.8,0,1.4-0.6,1.4-1.4V66
	c0,0.8-0.6,1.4-1.4,1.4h-22.9c-0.8,0-1.4-0.6-1.4-1.4v-3.9c0-0.8,0.6-1.4,1.4-1.4h8.3l1.1-9h35.1c0.8,0,1.4-0.6,1.4-1.4V47
	c0,0.8-0.6,1.4-1.4,1.4h-40.2c-0.8,0-1.4-0.6-1.4-1.4v-3.9c0-0.8,0.6-1.4,1.4-1.4h40.2c0.8,0,1.4,0.6,1.4,1.4v0.2h4.8
	c7,0,12.2,2.3,15.7,6.9c3.5,4.6,4.8,10.4,3.9,17.2c-0.8,6.8-3.5,12.5-8.2,17.1C179.7,89.2,173.9,91.6,167,91.6z M165.5,62.8
	c-1-1.2-2.5-1.9-4.4-1.9h-4.8l-1.8,14.5h4.8c1.9,0,3.5-0.6,4.9-1.8c1.4-1.2,2.2-3,2.5-5.4C167,65.9,166.6,64.1,165.5,62.8z
	 M358.2,145.6l9.4,13.5h-10.5l-8.1-11.7h-0.5h-8.5v11.7h-9.7V117h18.2c3.7,0,7,0.6,9.7,1.9c2.7,1.2,4.9,3,6.3,5.3
	c1.5,2.3,2.2,5,2.2,8.1s-0.8,5.8-2.3,8.1C363.1,142.6,361,144.4,358.2,145.6z M357,132.3c0-2.4-0.8-4.2-2.3-5.4
	c-1.5-1.3-3.8-1.9-6.7-1.9h-7.9v14.7h7.9c2.9,0,5.2-0.6,6.7-1.9C356.2,136.4,357,134.6,357,132.3z M194.4,117l-15.5,26.2L163.1,117
	H155v42.1h9.1v-24.7l12.3,20.3h4.4l12.4-20.8l0.1,25.3h9.1l-0.1-42.1H194.4z M248.1,124.9h13.5v34.2h9.7v-34.2h13.5V117h-36.7V124.9
	z M299.7,141.5h19.5V134h-19.5v-9.1h22.1V117H290v42.1h32.6v-7.8h-22.9V141.5z M222.2,141.5h19.5V134h-19.5v-9.1h22.1V117h-31.8
	v42.1h32.6v-7.8h-22.9V141.5z"/>
</svg>
