<svg id="Calque_1" data-name="Calque 1" xmlns="http://www.w3.org/2000/svg" viewBox="0 0 250 250"><defs><style>.cls-1{fill:#fff;}</style></defs><title>speed</title><path class="cls-1" d="M130,181.22c-21.81,0-43.62-.05-65.43.07-2.9,0-4.39-.85-5.67-3.53-14.8-31.11-8.53-67.8,16.5-91.52,18.77-17.78,41.36-25,67-20.87,34.07,5.54,59.62,30.9,65.45,64.87,2.9,16.9.28,33.19-7.31,48.66-1,2.14-2.53,2.37-4.52,2.37q-33,0-66.06,0ZM130,175v0c20.45,0,40.9-.06,61.35.07,3,0,4.43-1,5.51-3.73,9.71-24.79,7.39-48.49-7.79-70.17-21.93-31.31-63.81-39.68-96.82-20.14C62,99,49.14,138.51,62.81,170.9c1.36,3.23,3.07,4.23,6.49,4.21C89.54,174.95,109.78,175,130,175Z"/><path class="cls-1" d="M67.61,135.42c.17-25.88,22.26-50.35,49.29-55.52,32.12-6.15,60.51,11.39,71.75,34.3l-21.88,10.11c-12.47-19.13-29.89-28.66-52.55-25.79C91.95,101.35,77.15,114.8,67.61,135.42Z"/><path class="cls-1" d="M127.55,151.25a39.18,39.18,0,0,0,4.85-1.55q28.51-13.24,57-26.58a8.55,8.55,0,0,1,2-.86,11.91,11.91,0,0,1,2.4,0c-.45.76-.71,1.84-1.37,2.23-8.69,5.18-17.43,10.26-26.16,15.36-9.9,5.79-19.83,11.54-29.68,17.42a11.35,11.35,0,0,0-3.69,3.57c-2.2,3.52-5.49,5-9,3.71a7,7,0,0,1-4.57-8.18C120.27,152.44,123.18,150.37,127.55,151.25Z"/></svg>