<svg id="Calque_1" data-name="Calque 1" xmlns="http://www.w3.org/2000/svg" viewBox="0 0 250 250"><defs><style>.cls-1{fill:#fff;}</style></defs><title>time</title><path class="cls-1" d="M119,62.73v-5.9c-1.88,0-3.64.09-5.38,0a7.82,7.82,0,0,1-7.66-7.7,7.61,7.61,0,0,1,7.37-8q12.4-.33,24.81,0A7.54,7.54,0,0,1,145.58,49c0,4.44-3.19,7.59-7.89,7.82-1.39.07-2.79,0-4.45,0V63a75.25,75.25,0,0,1,42.23,19.24l5.77-7.08c-.38-.49-1.73-1.44-1.82-2.5-.18-2-.29-4.6.81-5.81.92-1,4.34-1.21,5.43-.31a76.35,76.35,0,0,1,10.88,11c.9,1.12.44,4.45-.63,5.7-.88,1-3.62.68-5.49.51-.85-.08-1.61-1.19-2.43-1.85l-6.23,6.73c25.31,30.86,19.92,69.56.87,93.22-19.66,24.41-53.06,33.4-83.4,22.09C70.06,193,51.44,163.66,52.89,131.15,54.19,101.94,77.66,67.22,119,62.73ZM64.94,135.45c-.43,32.79,26.6,60.38,59.67,60.92A60.71,60.71,0,1,0,126.18,75C92.75,74.46,65.39,101.48,64.94,135.45Z"/><path class="cls-1" d="M126.09,85.29c2.67,3.5,4.66,6.72,4.51,11.29-.33,10.07-.19,20.17,0,30.25a8.92,8.92,0,0,0,2,5c3.41,4.25,3.31,9.73-.57,13.24a9.24,9.24,0,0,1-12.66-.24c-3.71-3.61-3.59-9.08,0-13.24a8,8,0,0,0,1.8-4.7c.16-10.08.36-20.18,0-30.25C120.85,91.83,123.1,88.71,126.09,85.29Z"/></svg>